<svg width="960" height="600" version="1.1" xmlns="http://www.w3.org/2000/svg"><g></g><g transform="translate(480,300)scale(1,1)"><text text-anchor="middle" transform="translate(68,-10)rotate(59.99999955470795)scale(0.9999999865388264,0.9999999865388264)" style="font-size: 10px; font-family: Helvetica; fill: rgb(99, 121, 57);">Layout</text><text text-anchor="middle" transform="translate(271,96)rotate(30.00000044529205)scale(0.9999999865388264,0.9999999865388264)" style="font-size: 55px; font-family: Helvetica; fill: rgb(57, 59, 121);">JavaScript</text><text text-anchor="middle" transform="translate(-166,4)rotate(-59.99999955470795)skewX(0)scale(0.9999999865388264,0.9999999865388264)" style="font-size: 100px; font-family: Helvetica; fill: rgb(107, 110, 207);">php</text><text text-anchor="middle" transform="translate(-285,109)rotate(30.000000445292052)scale(0.9999999865388264,0.9999999865388264)" style="font-size: 81px; font-family: Helvetica; fill: rgb(99, 121, 57);">AWS</text><text text-anchor="middle" transform="translate(-88,40)rotate(-59.99999955470795)scale(0.9999999865388264,0.9999999865388264)" style="font-size: 81px; font-family: Helvetica; fill: rgb(140, 162, 82);">mysql</text><text text-anchor="middle" transform="translate(169,149)rotate(-59.99999955470795)scale(0.9999999865388264,0.9999999865388264)" style="font-size: 55px; font-family: Helvetica; fill: rgb(181, 207, 107);">Reactjs</text><text text-anchor="middle" transform="translate(-224,-50)rotate(-59.99999955470795)scale(0.9999999865388264,0.9999999865388264)" style="font-size: 55px; font-family: Helvetica; fill: rgb(206, 219, 156);">DevOps</text><text text-anchor="middle" transform="translate(-48,45)rotate(30.00000044529205)scale(0.9999999865388264,0.9999999865388264)" style="font-size: 55px; font-family: Helvetica; fill: rgb(140, 109, 49);">UX</text><text text-anchor="middle" transform="translate(-55,208)rotate(-30.00000044529205)scale(0.9999999865388264,0.9999999865388264)" style="font-size: 55px; font-family: Helvetica; fill: rgb(189, 158, 57);">Design</text><text text-anchor="middle" transform="translate(-37,-64)rotate(59.99999955470795)skewX(0)scale(0.9999999865388264,0.9999999865388264)" style="font-size: 55px; font-family: Helvetica; fill: rgb(231, 186, 82);">FrontEnd</text><text text-anchor="middle" transform="translate(146,-91)rotate(-30.00000044529205)scale(0.9999999865388264,0.9999999865388264)" style="font-size: 55px; font-family: Helvetica; fill: rgb(231, 203, 148);">BackEnd</text><text text-anchor="middle" transform="translate(-219,-153)rotate(0)scale(1,1)" style="font-size: 55px; font-family: Helvetica; fill: rgb(132, 60, 57);">Database</text><text text-anchor="middle" transform="translate(-268,183)rotate(59.99999955470795)scale(0.9999999865388264,0.9999999865388264)" style="font-size: 55px; font-family: Helvetica; fill: rgb(173, 73, 74);">CSS</text><text text-anchor="middle" transform="translate(-102,101)rotate(-59.99999955470795)scale(0.9999999865388264,0.9999999865388264)" style="font-size: 10px; font-family: Helvetica; fill: rgb(214, 97, 107);">Mobile</text><text text-anchor="middle" transform="translate(-87,-145)rotate(-59.99999955470795)scale(0.9999999865388264,0.9999999865388264)" style="font-size: 10px; font-family: Helvetica; fill: rgb(231, 150, 156);">C</text><text text-anchor="middle" transform="translate(125,-19)rotate(0)scale(1,1)" style="font-size: 10px; font-family: Helvetica; fill: rgb(123, 65, 115);">Java</text><text text-anchor="middle" transform="translate(38,-88)rotate(0)scale(1,1)" style="font-size: 10px; font-family: Helvetica; fill: rgb(165, 81, 148);">MSSQL</text><text text-anchor="middle" transform="translate(-98,-48)rotate(0)scale(1,1)" style="font-size: 10px; font-family: Helvetica; fill: rgb(206, 109, 189);">C++</text><text text-anchor="middle" transform="translate(109,-140)rotate(-30.000000445292052)skewX(0)scale(0.9999999865388264,0.9999999865388264)" style="font-size: 10px; font-family: Helvetica; fill: rgb(222, 158, 214);">Apache</text><text text-anchor="middle" transform="translate(-257,-91)rotate(-30.00000044529205)skewX(0)scale(0.9999999865388264,0.9999999865388264)" style="font-size: 10px; font-family: Helvetica; fill: rgb(57, 59, 121);">Linux</text><text text-anchor="middle" transform="translate(46,-18)rotate(-30.00000044529205)scale(0.9999999865388264,0.9999999865388264)" style="font-size: 10px; font-family: Helvetica; fill: rgb(82, 84, 163);">HTML5</text><text text-anchor="middle" transform="translate(-50,16)rotate(-59.99999955470795)scale(0.9999999865388264,0.9999999865388264)" style="font-size: 10px; font-family: Helvetica; fill: rgb(107, 110, 207);">jQuery</text><text text-anchor="middle" transform="translate(-91,-125)rotate(-30.00000044529205)scale(0.9999999865388264,0.9999999865388264)" style="font-size: 10px; font-family: Helvetica; fill: rgb(156, 158, 222);">REST</text><text text-anchor="middle" transform="translate(229,-126)rotate(-30.00000044529205)skewX(0)scale(0.9999999865388264,0.9999999865388264)" style="font-size: 10px; font-family: Helvetica; fill: rgb(99, 121, 57);">OpenGL</text><text text-anchor="middle" transform="translate(-71,93)rotate(0)scale(1,1)" style="font-size: 10px; font-family: Helvetica; fill: rgb(140, 162, 82);">Excel</text><text text-anchor="middle" transform="translate(50,125)rotate(-59.99999955470795)skewX(0)scale(0.9999999865388264,0.9999999865388264)" style="font-size: 10px; font-family: Helvetica; fill: rgb(181, 207, 107);">RDS</text><text text-anchor="middle" transform="translate(-170,72)rotate(59.99999955470795)scale(0.9999999865388264,0.9999999865388264)" style="font-size: 10px; font-family: Helvetica; fill: rgb(206, 219, 156);">Jira</text><text text-anchor="middle" transform="translate(151,110)rotate(-30.00000044529205)scale(0.9999999865388264,0.9999999865388264)" style="font-size: 10px; font-family: Helvetica; fill: rgb(140, 109, 49);">Git</text><text text-anchor="middle" transform="translate(188,-62)rotate(0)scale(1,1)" style="font-size: 10px; font-family: Helvetica; fill: rgb(189, 158, 57);">Slack</text><text text-anchor="middle" transform="translate(-27,-6)rotate(-30.00000044529205)scale(0.9999999865388264,0.9999999865388264)" style="font-size: 10px; font-family: Helvetica; fill: rgb(231, 186, 82);">WebGL</text><text text-anchor="middle" transform="translate(47,143)rotate(-30.00000044529205)scale(0.9999999865388264,0.9999999865388264)" style="font-size: 10px; font-family: Helvetica; fill: rgb(231, 203, 148);">Python</text><text text-anchor="middle" transform="translate(38,-38)rotate(-59.99999955470795)scale(0.9999999865388264,0.9999999865388264)" style="font-size: 10px; font-family: Helvetica; fill: rgb(132, 60, 57);">SQL</text><text text-anchor="middle" transform="translate(-3,-136)rotate(-30.00000044529205)skewX(0)scale(0.9999999865388264,0.9999999865388264)" style="font-size: 10px; font-family: Helvetica; fill: rgb(173, 73, 74);">HTML</text><text text-anchor="middle" transform="translate(-274,-50)rotate(0)scale(1,1)" style="font-size: 10px; font-family: Helvetica; fill: rgb(214, 97, 107);">Planning</text><text text-anchor="middle" transform="translate(89,-43)rotate(-30.00000044529205)scale(0.9999999865388264,0.9999999865388264)" style="font-size: 10px; font-family: Helvetica; fill: rgb(231, 150, 156);">Prototyping</text><text text-anchor="middle" transform="translate(86,64)rotate(-30.00000044529205)scale(0.9999999865388264,0.9999999865388264)" style="font-size: 100px; font-family: Helvetica; fill: rgb(156, 158, 222);">Programming</text></g></svg>